<svg xmlns="http://www.w3.org/2000/svg" viewBox="0 0 100 100" width="512" height="512" role="img" aria-label="Bitwise, x-engine-rust"><g fill="hsl(18,100%,48%)" fill-opacity="0.22"><rect x="1.5" y="1.5" width="2.0" height="2.0"/><rect x="6.5" y="1.5" width="2.0" height="2.0"/><rect x="16.5" y="1.5" width="2.0" height="2.0"/><rect x="21.5" y="1.5" width="2.0" height="2.0"/><rect x="26.5" y="1.5" width="2.0" height="2.0"/><rect x="36.5" y="1.5" width="2.0" height="2.0"/><rect x="41.5" y="1.5" width="2.0" height="2.0"/><rect x="46.5" y="1.5" width="2.0" height="2.0"/><rect x="56.5" y="1.5" width="2.0" height="2.0"/><rect x="61.5" y="1.5" width="2.0" height="2.0"/><rect x="66.5" y="1.5" width="2.0" height="2.0"/><rect x="76.5" y="1.5" width="2.0" height="2.0"/><rect x="81.5" y="1.5" width="2.0" height="2.0"/><rect x="86.5" y="1.5" width="2.0" height="2.0"/><rect x="96.5" y="1.5" width="2.0" height="2.0"/><rect x="11.5" y="6.5" width="2.0" height="2.0"/><rect x="21.5" y="6.5" width="2.0" height="2.0"/><rect x="26.5" y="6.5" width="2.0" height="2.0"/><rect x="36.5" y="6.5" width="2.0" height="2.0"/><rect x="51.5" y="6.5" width="2.0" height="2.0"/><rect x="61.5" y="6.5" width="2.0" height="2.0"/><rect x="66.5" y="6.5" width="2.0" height="2.0"/><rect x="76.5" y="6.5" width="2.0" height="2.0"/><rect x="91.5" y="6.5" width="2.0" height="2.0"/><rect x="6.5" y="11.5" width="2.0" height="2.0"/><rect x="11.5" y="11.5" width="2.0" height="2.0"/><rect x="26.5" y="11.5" width="2.0" height="2.0"/><rect x="31.5" y="11.5" width="2.0" height="2.0"/><rect x="46.5" y="11.5" width="2.0" height="2.0"/><rect x="51.5" y="11.5" width="2.0" height="2.0"/><rect x="66.5" y="11.5" width="2.0" height="2.0"/><rect x="71.5" y="11.5" width="2.0" height="2.0"/><rect x="86.5" y="11.5" width="2.0" height="2.0"/><rect x="91.5" y="11.5" width="2.0" height="2.0"/><rect x="6.5" y="16.5" width="2.0" height="2.0"/><rect x="11.5" y="16.5" width="2.0" height="2.0"/><rect x="16.5" y="16.5" width="2.0" height="2.0"/><rect x="21.5" y="16.5" width="2.0" height="2.0"/><rect x="46.5" y="16.5" width="2.0" height="2.0"/><rect x="51.5" y="16.5" width="2.0" height="2.0"/><rect x="56.5" y="16.5" width="2.0" height="2.0"/><rect x="61.5" y="16.5" width="2.0" height="2.0"/><rect x="86.5" y="16.5" width="2.0" height="2.0"/><rect x="91.5" y="16.5" width="2.0" height="2.0"/><rect x="96.5" y="16.5" width="2.0" height="2.0"/><rect x="6.5" y="21.5" width="2.0" height="2.0"/><rect x="11.5" y="21.5" width="2.0" height="2.0"/><rect x="16.5" y="21.5" width="2.0" height="2.0"/><rect x="26.5" y="21.5" width="2.0" height="2.0"/><rect x="31.5" y="21.5" width="2.0" height="2.0"/><rect x="36.5" y="21.5" width="2.0" height="2.0"/><rect x="46.5" y="21.5" width="2.0" height="2.0"/><rect x="51.5" y="21.5" width="2.0" height="2.0"/><rect x="56.5" y="21.5" width="2.0" height="2.0"/><rect x="66.5" y="21.5" width="2.0" height="2.0"/><rect x="71.5" y="21.5" width="2.0" height="2.0"/><rect x="76.5" y="21.5" width="2.0" height="2.0"/><rect x="86.5" y="21.5" width="2.0" height="2.0"/><rect x="91.5" y="21.5" width="2.0" height="2.0"/><rect x="96.5" y="21.5" width="2.0" height="2.0"/><rect x="1.5" y="26.5" width="2.0" height="2.0"/><rect x="26.5" y="26.5" width="2.0" height="2.0"/><rect x="31.5" y="26.5" width="2.0" height="2.0"/><rect x="36.5" y="26.5" width="2.0" height="2.0"/><rect x="41.5" y="26.5" width="2.0" height="2.0"/><rect x="66.5" y="26.5" width="2.0" height="2.0"/><rect x="71.5" y="26.5" width="2.0" height="2.0"/><rect x="76.5" y="26.5" width="2.0" height="2.0"/><rect x="81.5" y="26.5" width="2.0" height="2.0"/><rect x="1.5" y="31.5" width="2.0" height="2.0"/><rect x="6.5" y="31.5" width="2.0" height="2.0"/><rect x="21.5" y="31.5" width="2.0" height="2.0"/><rect x="26.5" y="31.5" width="2.0" height="2.0"/><rect x="41.5" y="31.5" width="2.0" height="2.0"/><rect x="46.5" y="31.5" width="2.0" height="2.0"/><rect x="61.5" y="31.5" width="2.0" height="2.0"/><rect x="66.5" y="31.5" width="2.0" height="2.0"/><rect x="81.5" y="31.5" width="2.0" height="2.0"/><rect x="86.5" y="31.5" width="2.0" height="2.0"/><rect x="1.5" y="36.5" width="2.0" height="2.0"/><rect x="6.5" y="36.5" width="2.0" height="2.0"/><rect x="16.5" y="36.5" width="2.0" height="2.0"/><rect x="31.5" y="36.5" width="2.0" height="2.0"/><rect x="41.5" y="36.5" width="2.0" height="2.0"/><rect x="46.5" y="36.5" width="2.0" height="2.0"/><rect x="56.5" y="36.5" width="2.0" height="2.0"/><rect x="71.5" y="36.5" width="2.0" height="2.0"/><rect x="81.5" y="36.5" width="2.0" height="2.0"/><rect x="86.5" y="36.5" width="2.0" height="2.0"/><rect x="96.5" y="36.5" width="2.0" height="2.0"/><rect x="1.5" y="41.5" width="2.0" height="2.0"/><rect x="6.5" y="41.5" width="2.0" height="2.0"/><rect x="16.5" y="41.5" width="2.0" height="2.0"/><rect x="21.5" y="41.5" width="2.0" height="2.0"/><rect x="26.5" y="41.5" width="2.0" height="2.0"/><rect x="36.5" y="41.5" width="2.0" height="2.0"/><rect x="41.5" y="41.5" width="2.0" height="2.0"/><rect x="46.5" y="41.5" width="2.0" height="2.0"/><rect x="56.5" y="41.5" width="2.0" height="2.0"/><rect x="61.5" y="41.5" width="2.0" height="2.0"/><rect x="66.5" y="41.5" width="2.0" height="2.0"/><rect x="76.5" y="41.5" width="2.0" height="2.0"/><rect x="81.5" y="41.5" width="2.0" height="2.0"/><rect x="86.5" y="41.5" width="2.0" height="2.0"/><rect x="96.5" y="41.5" width="2.0" height="2.0"/><rect x="11.5" y="46.5" width="2.0" height="2.0"/><rect x="21.5" y="46.5" width="2.0" height="2.0"/><rect x="26.5" y="46.5" width="2.0" height="2.0"/><rect x="36.5" y="46.5" width="2.0" height="2.0"/><rect x="51.5" y="46.5" width="2.0" height="2.0"/><rect x="61.5" y="46.5" width="2.0" height="2.0"/><rect x="66.5" y="46.5" width="2.0" height="2.0"/><rect x="76.5" y="46.5" width="2.0" height="2.0"/><rect x="91.5" y="46.5" width="2.0" height="2.0"/><rect x="6.5" y="51.5" width="2.0" height="2.0"/><rect x="11.5" y="51.5" width="2.0" height="2.0"/><rect x="26.5" y="51.5" width="2.0" height="2.0"/><rect x="31.5" y="51.5" width="2.0" height="2.0"/><rect x="46.5" y="51.5" width="2.0" height="2.0"/><rect x="51.5" y="51.5" width="2.0" height="2.0"/><rect x="66.5" y="51.5" width="2.0" height="2.0"/><rect x="71.5" y="51.5" width="2.0" height="2.0"/><rect x="86.5" y="51.5" width="2.0" height="2.0"/><rect x="91.5" y="51.5" width="2.0" height="2.0"/><rect x="6.5" y="56.5" width="2.0" height="2.0"/><rect x="11.5" y="56.5" width="2.0" height="2.0"/><rect x="16.5" y="56.5" width="2.0" height="2.0"/><rect x="21.5" y="56.5" width="2.0" height="2.0"/><rect x="46.5" y="56.5" width="2.0" height="2.0"/><rect x="51.5" y="56.5" width="2.0" height="2.0"/><rect x="56.5" y="56.5" width="2.0" height="2.0"/><rect x="61.5" y="56.5" width="2.0" height="2.0"/><rect x="86.5" y="56.5" width="2.0" height="2.0"/><rect x="91.5" y="56.5" width="2.0" height="2.0"/><rect x="96.5" y="56.5" width="2.0" height="2.0"/><rect x="6.5" y="61.5" width="2.0" height="2.0"/><rect x="11.5" y="61.5" width="2.0" height="2.0"/><rect x="16.5" y="61.5" width="2.0" height="2.0"/><rect x="26.5" y="61.5" width="2.0" height="2.0"/><rect x="31.5" y="61.5" width="2.0" height="2.0"/><rect x="36.5" y="61.5" width="2.0" height="2.0"/><rect x="46.5" y="61.5" width="2.0" height="2.0"/><rect x="51.5" y="61.5" width="2.0" height="2.0"/><rect x="56.5" y="61.5" width="2.0" height="2.0"/><rect x="66.5" y="61.5" width="2.0" height="2.0"/><rect x="71.5" y="61.5" width="2.0" height="2.0"/><rect x="76.5" y="61.5" width="2.0" height="2.0"/><rect x="86.5" y="61.5" width="2.0" height="2.0"/><rect x="91.5" y="61.5" width="2.0" height="2.0"/><rect x="96.5" y="61.5" width="2.0" height="2.0"/><rect x="1.5" y="66.5" width="2.0" height="2.0"/><rect x="26.5" y="66.5" width="2.0" height="2.0"/><rect x="31.5" y="66.5" width="2.0" height="2.0"/><rect x="36.5" y="66.5" width="2.0" height="2.0"/><rect x="41.5" y="66.5" width="2.0" height="2.0"/><rect x="66.5" y="66.5" width="2.0" height="2.0"/><rect x="71.5" y="66.5" width="2.0" height="2.0"/><rect x="76.5" y="66.5" width="2.0" height="2.0"/><rect x="81.5" y="66.5" width="2.0" height="2.0"/><rect x="1.5" y="71.5" width="2.0" height="2.0"/><rect x="6.5" y="71.5" width="2.0" height="2.0"/><rect x="21.5" y="71.5" width="2.0" height="2.0"/><rect x="26.5" y="71.5" width="2.0" height="2.0"/><rect x="41.5" y="71.5" width="2.0" height="2.0"/><rect x="46.5" y="71.5" width="2.0" height="2.0"/><rect x="61.5" y="71.5" width="2.0" height="2.0"/><rect x="66.5" y="71.5" width="2.0" height="2.0"/><rect x="81.5" y="71.5" width="2.0" height="2.0"/><rect x="86.5" y="71.5" width="2.0" height="2.0"/><rect x="1.5" y="76.5" width="2.0" height="2.0"/><rect x="6.5" y="76.5" width="2.0" height="2.0"/><rect x="16.5" y="76.5" width="2.0" height="2.0"/><rect x="31.5" y="76.5" width="2.0" height="2.0"/><rect x="41.5" y="76.5" width="2.0" height="2.0"/><rect x="46.5" y="76.5" width="2.0" height="2.0"/><rect x="56.5" y="76.5" width="2.0" height="2.0"/><rect x="71.5" y="76.5" width="2.0" height="2.0"/><rect x="81.5" y="76.5" width="2.0" height="2.0"/><rect x="86.5" y="76.5" width="2.0" height="2.0"/><rect x="96.5" y="76.5" width="2.0" height="2.0"/><rect x="1.5" y="81.5" width="2.0" height="2.0"/><rect x="6.5" y="81.5" width="2.0" height="2.0"/><rect x="16.5" y="81.5" width="2.0" height="2.0"/><rect x="21.5" y="81.5" width="2.0" height="2.0"/><rect x="26.5" y="81.5" width="2.0" height="2.0"/><rect x="36.5" y="81.5" width="2.0" height="2.0"/><rect x="41.5" y="81.5" width="2.0" height="2.0"/><rect x="46.5" y="81.5" width="2.0" height="2.0"/><rect x="56.5" y="81.5" width="2.0" height="2.0"/><rect x="61.5" y="81.5" width="2.0" height="2.0"/><rect x="66.5" y="81.5" width="2.0" height="2.0"/><rect x="76.5" y="81.5" width="2.0" height="2.0"/><rect x="81.5" y="81.5" width="2.0" height="2.0"/><rect x="86.5" y="81.5" width="2.0" height="2.0"/><rect x="96.5" y="81.5" width="2.0" height="2.0"/><rect x="11.5" y="86.5" width="2.0" height="2.0"/><rect x="21.5" y="86.5" width="2.0" height="2.0"/><rect x="26.5" y="86.5" width="2.0" height="2.0"/><rect x="36.5" y="86.5" width="2.0" height="2.0"/><rect x="51.5" y="86.5" width="2.0" height="2.0"/><rect x="61.5" y="86.5" width="2.0" height="2.0"/><rect x="66.5" y="86.5" width="2.0" height="2.0"/><rect x="76.5" y="86.5" width="2.0" height="2.0"/><rect x="91.5" y="86.5" width="2.0" height="2.0"/><rect x="6.5" y="91.5" width="2.0" height="2.0"/><rect x="11.5" y="91.5" width="2.0" height="2.0"/><rect x="26.5" y="91.5" width="2.0" height="2.0"/><rect x="31.5" y="91.5" width="2.0" height="2.0"/><rect x="46.5" y="91.5" width="2.0" height="2.0"/><rect x="51.5" y="91.5" width="2.0" height="2.0"/><rect x="66.5" y="91.5" width="2.0" height="2.0"/><rect x="71.5" y="91.5" width="2.0" height="2.0"/><rect x="86.5" y="91.5" width="2.0" height="2.0"/><rect x="91.5" y="91.5" width="2.0" height="2.0"/><rect x="6.5" y="96.5" width="2.0" height="2.0"/><rect x="11.5" y="96.5" width="2.0" height="2.0"/><rect x="16.5" y="96.5" width="2.0" height="2.0"/><rect x="21.5" y="96.5" width="2.0" height="2.0"/><rect x="46.5" y="96.5" width="2.0" height="2.0"/><rect x="51.5" y="96.5" width="2.0" height="2.0"/><rect x="56.5" y="96.5" width="2.0" height="2.0"/><rect x="61.5" y="96.5" width="2.0" height="2.0"/><rect x="86.5" y="96.5" width="2.0" height="2.0"/><rect x="91.5" y="96.5" width="2.0" height="2.0"/><rect x="96.5" y="96.5" width="2.0" height="2.0"/></g><defs><path id="o-14" d="M496 120Q496 150 505.5 176.0Q515 202 533.0 221.5Q551 241 578.0 252.0Q605 263 641 263Q677 263 704.5 252.0Q732 241 750.5 221.5Q769 202 778.5 176.0Q788 150 788 120Q788 91 778.5 65.5Q769 40 750.5 21.0Q732 2 704.5 -8.5Q677 -19 641 -19Q605 -19 578.0 -8.5Q551 2 533.0 21.0Q515 40 505.5 65.5Q496 91 496 120Z"/><path id="o-12" d="M643 43Q643 -4 631.5 -55.5Q620 -107 597.5 -157.5Q575 -208 543.0 -254.0Q511 -300 469 -336L354 -273Q402 -203 422.0 -124.0Q442 -45 442 40V219H643Z"/><path id="o-91" d="M978 -366Q913 -364 860.0 -344.0Q807 -324 765.0 -290.0Q723 -256 692.5 -211.0Q662 -166 641.5 -114.5Q621 -63 611.0 -8.5Q601 46 601 99V268Q601 412 532.5 477.0Q464 542 323 543V688Q464 688 532.5 752.5Q601 817 601 962V1132Q601 1185 610.0 1239.5Q619 1294 638.0 1345.5Q657 1397 686.5 1442.0Q716 1487 758.0 1521.0Q800 1555 854.5 1575.0Q909 1595 978 1597L999 1482Q927 1480 884.5 1448.0Q842 1416 820.5 1366.5Q799 1317 793.0 1255.0Q787 1193 787 1132V962Q786 842 731.0 751.5Q676 661 560 614Q676 568 731.0 477.5Q786 387 787 268V99Q787 37 797.0 -24.5Q807 -86 831.5 -135.5Q856 -185 896.5 -217.0Q937 -249 999 -251Z"/><path id="o-47" d="M1121 644Q1120 566 1107.5 486.5Q1095 407 1069.0 333.0Q1043 259 1002.5 195.0Q962 131 906.0 83.0Q850 35 777.5 7.5Q705 -20 615 -20Q525 -20 452.5 7.5Q380 35 324.0 83.0Q268 131 227.0 195.5Q186 260 159.5 334.0Q133 408 120.0 487.0Q107 566 106 644V810Q107 888 119.5 967.5Q132 1047 158.5 1121.0Q185 1195 225.5 1259.5Q266 1324 322.0 1372.5Q378 1421 450.5 1448.5Q523 1476 613 1476Q703 1476 776.0 1448.5Q849 1421 905.0 1373.0Q961 1325 1001.5 1260.5Q1042 1196 1068.5 1122.0Q1095 1048 1107.5 968.0Q1120 888 1121 810ZM938 812Q937 864 931.0 920.5Q925 977 910.5 1032.5Q896 1088 872.0 1138.5Q848 1189 812.0 1227.5Q776 1266 727.0 1288.5Q678 1311 613 1311Q549 1311 500.0 1288.0Q451 1265 415.0 1226.5Q379 1188 355.0 1137.5Q331 1087 316.5 1031.5Q302 976 295.5 919.5Q289 863 288 812V644Q289 593 295.5 536.0Q302 479 317.0 423.5Q332 368 356.0 317.0Q380 266 416.0 227.5Q452 189 501.0 166.0Q550 143 615 143Q680 143 729.5 166.0Q779 189 814.5 227.5Q850 266 873.5 316.5Q897 367 911.5 422.5Q926 478 931.5 535.0Q937 592 938 644Z"/><path id="o-86" d="M598 266 615 199 633 266 936 1082H1125L684 0H543L98 1082H288Z"/><path id="o-93" d="M323 -251Q384 -249 425.0 -217.0Q466 -185 490.5 -135.5Q515 -86 525.5 -24.5Q536 37 536 99V268Q536 387 591.0 477.5Q646 568 762 614Q646 661 591.0 751.5Q536 842 536 962V1132Q536 1193 529.5 1255.0Q523 1317 501.5 1366.5Q480 1416 438.0 1448.0Q396 1480 324 1482L344 1597Q413 1595 467.5 1575.0Q522 1555 564.0 1521.0Q606 1487 635.5 1442.0Q665 1397 684.0 1345.5Q703 1294 712.0 1239.5Q721 1185 721 1132V962Q721 817 790.0 752.5Q859 688 999 688V543Q859 542 790.0 477.0Q721 412 721 268V99Q721 19 699.0 -62.5Q677 -144 630.5 -211.0Q584 -278 513.0 -321.0Q442 -364 344 -366Z"/><path id="o-54" d="M610 298 954 1456H1151L692 0H531L71 1456H269Z"/><path id="o-2" d="M505 1427 484 1057H354L355 1411V1536H505ZM862 1427 841 1057H712L713 1411V1536H863Z"/></defs><g fill="#161a22"><use href="#o-14" transform="translate(23.12,24.63) scale(0.0088,-0.0088)"/><use href="#o-12" transform="translate(33.87,24.63) scale(0.0088,-0.0088)"/><use href="#o-14" transform="translate(55.38,24.63) scale(0.0088,-0.0088)"/><use href="#o-12" transform="translate(66.13,24.63) scale(0.0088,-0.0088)"/><use href="#o-91" transform="translate(23.12,45.63) scale(0.0088,-0.0088)"/><use href="#o-86" transform="translate(44.62,45.63) scale(0.0088,-0.0088)"/><use href="#o-93" transform="translate(66.13,45.63) scale(0.0088,-0.0088)"/><use href="#o-2" transform="translate(33.87,87.63) scale(0.0088,-0.0088)"/><use href="#o-2" transform="translate(55.38,87.63) scale(0.0088,-0.0088)"/></g><g fill="hsl(18,100%,48%)"><use href="#o-47" transform="translate(33.87,45.63) scale(0.0088,-0.0088)"/></g><g fill="hsl(18,100%,48%)"><use href="#o-47" transform="translate(55.38,45.63) scale(0.0088,-0.0088)"/></g><g fill="hsl(18,100%,48%)"><use href="#o-54" transform="translate(23.12,66.63) scale(0.0088,-0.0088)"/><use href="#o-54" transform="translate(66.13,66.63) scale(0.0088,-0.0088)"/></g></svg>